<svg xmlns="http://www.w3.org/2000/svg" viewBox="5 17 54 60" role="img" aria-label="ThuraGirl"><g transform="translate(0,14)"><defs><linearGradient id="tg-hair" x1="0" y1="0" x2="0" y2="1"><stop offset="0%" stop-color="#FBB6CE"></stop><stop offset="100%" stop-color="#EC4899"></stop></linearGradient><linearGradient id="tg-band" x1="0" y1="0" x2="1" y2="1"><stop offset="0%" stop-color="#0FBFB6"></stop><stop offset="100%" stop-color="#0AA39B"></stop></linearGradient><radialGradient id="tg-dot" cx="0.5" cy="0.5"><stop offset="0%" stop-color="#A7F3D0"></stop><stop offset="100%" stop-color="#0FBFB6"></stop></radialGradient><radialGradient id="tg-eye" cx="0.4" cy="0.3"><stop offset="0%" stop-color="#A7F3D0"></stop><stop offset="55%" stop-color="#0FBFB6"></stop><stop offset="100%" stop-color="#0D9488"></stop></radialGradient></defs>
<path d="M9 36 C 9 17, 19 6, 32 6 C 45 6, 55 17, 55 36 C 55 44, 54 50, 51.5 53 C 50 54.8, 47 54.5, 47 51.5 L 47 41.5 L 17 41.5 L 17 51.5 C 17 54.5, 14 54.8, 12.5 53 C 10 50, 9 44, 9 36 Z" fill="url(#tg-hair)" stroke="#0A0A0A" stroke-width="2" stroke-linejoin="round"></path>
<path d="M11 27.5 C 14 18, 22.5 13.5, 32 13.5 C 41.5 13.5, 50 18, 53 27.5 C 53.35 28.75, 52.6 30, 51 30 L 13 30 C 11.4 30, 10.65 28.75, 11 27.5 Z" fill="url(#tg-band)" stroke="#0A0A0A" stroke-width="2" stroke-linejoin="round"></path>
<path d="M17 35 C 17 31.2, 19.2 29.8, 22.6 29.8 L 41.4 29.8 C 44.8 29.8, 47 31.2, 47 35 L 47 43 C 47 49.8, 40.8 54, 32 54 C 23.2 54, 17 49.8, 17 43 Z" fill="#FFE4CC" stroke="#0A0A0A" stroke-width="2" stroke-linejoin="round"></path>
<ellipse cx="26" cy="40" rx="3.4" ry="4.2" fill="#0A0A0A"></ellipse>
<ellipse cx="26" cy="40" rx="2.6" ry="3.4" fill="url(#tg-eye)"></ellipse>
<circle cx="27.2" cy="38.6" r="1.3" fill="#FFFFFF"></circle>
<ellipse cx="38" cy="40" rx="3.4" ry="4.2" fill="#0A0A0A"></ellipse>
<ellipse cx="38" cy="40" rx="2.6" ry="3.4" fill="url(#tg-eye)"></ellipse>
<circle cx="39.2" cy="38.6" r="1.3" fill="#FFFFFF"></circle>
<circle cx="22.5" cy="46" r="1.6" fill="#FBB6CE"></circle>
<circle cx="41.5" cy="46" r="1.6" fill="#FBB6CE"></circle>
<path d="M29 48 Q 32 51 35 48" stroke="#0A0A0A" stroke-width="1.8" fill="none" stroke-linecap="round"></path>
<circle cx="47" cy="37.5" r="2.2" fill="url(#tg-dot)" stroke="#0A0A0A" stroke-width="1.6"></circle>
<circle cx="47" cy="37.5" r="0.8" fill="#FFFFFF"></circle>
</g>
</svg>